<svg width="7" height="13" viewBox="0 0 7 13" fill="none" xmlns="http://www.w3.org/2000/svg">
<g opacity="0.3">
<path d="M1.35857 2.44517V1.94175C1.35857 1.65409 1.50157 1.43834 1.64458 1.15067C1.78759 0.863001 2.0736 0.647251 2.50262 0.359584C2.86014 0.143834 3.43217 0 4.1472 0H6.2208V2.22942H4.71923C4.57622 2.22942 4.43321 2.30134 4.29021 2.37325C4.1472 2.51709 4.0757 2.589 4.0757 2.66092V4.09926H6.2208C6.2208 4.38692 6.1493 4.67459 6.1493 4.89034L6.07779 5.53759C6.07779 5.75334 6.00629 5.96909 6.00629 6.18484H4.1472V12.4416H1.35857V6.18484H0V4.02734H1.35857V2.44517V2.44517Z" fill="black"/>
</g>
</svg>
