<svg width="14" height="14" viewBox="0 0 14 14" fill="none" xmlns="http://www.w3.org/2000/svg">
<g opacity="0.3">
<path fill-rule="evenodd" clip-rule="evenodd" d="M10.1565 0H3.76968C1.69104 0 0 1.69104 0 3.76968V10.1566C0 12.2351 1.69104 13.9261 3.76968 13.9261H10.1566C12.2351 13.9261 13.9261 12.2351 13.9261 10.1566V3.76968C13.9261 1.69104 12.2351 0 10.1565 0ZM6.96307 10.7709C4.8634 10.7709 3.15525 9.06274 3.15525 6.96307C3.15525 4.8634 4.8634 3.15525 6.96307 3.15525C9.06274 3.15525 10.7709 4.8634 10.7709 6.96307C10.7709 9.06274 9.06274 10.7709 6.96307 10.7709ZM10.3358 2.99198C10.3358 3.44195 10.7018 3.80793 11.1518 3.80793C11.6017 3.80793 11.9678 3.44195 11.9678 2.99198C11.9678 2.54202 11.6017 2.17596 11.1518 2.17596C10.7018 2.17596 10.3358 2.54202 10.3358 2.99198Z" fill="black"/>
<path d="M6.89639 4.75366C5.71507 4.75366 4.75391 5.71475 4.75391 6.89614C4.75391 8.07746 5.71507 9.03863 6.89639 9.03863C8.07778 9.03863 9.03887 8.07746 9.03887 6.89614C9.03887 5.71475 8.07778 4.75366 6.89639 4.75366Z" fill="black"/>
</g>
</svg>
