<svg width="13" height="12" viewBox="0 0 13 12" fill="none" xmlns="http://www.w3.org/2000/svg">
<g opacity="0.3">
<path fill-rule="evenodd" clip-rule="evenodd" d="M1.43557 0C0.528894 0 0 0.6336 0 1.4256C0 2.2176 0.528894 2.8512 1.43557 2.8512C2.34224 2.8512 2.87114 2.2176 2.87114 1.4256C2.79558 0.5544 2.26669 0 1.43557 0ZM12.4416 7.13253V11.4048H9.65249V7.42217C9.65249 6.40841 9.24233 5.75671 8.25794 5.75671C7.51965 5.75671 7.02745 6.19118 6.78136 6.69806C6.69932 6.84288 6.69932 7.06011 6.69932 7.27735V11.4048H3.82818V3.94642H6.61729V5.03259C7.02745 4.52571 7.68371 3.8016 9.1603 3.8016C11.047 3.8016 12.4416 4.88777 12.4416 7.13253ZM2.87114 11.4048H0V3.8016H2.87114V11.4048Z" fill="black"/>
</g>
</svg>
