<svg width="9" height="11" viewBox="0 0 9 11" fill="none" xmlns="http://www.w3.org/2000/svg">
<path fill-rule="evenodd" clip-rule="evenodd" d="M7.875 4.125H7.5V2.75C7.5 1.23337 6.1545 0 4.5 0C2.8455 0 1.5 1.23337 1.5 2.75V4.125H1.125C0.505 4.125 0 4.58746 0 5.15625V9.96875C0 10.5375 0.505 11 1.125 11H7.875C8.495 11 9 10.5375 9 9.96875V5.15625C9 4.58746 8.495 4.125 7.875 4.125ZM2.5 2.75C2.5 1.73892 3.397 0.916667 4.5 0.916667C5.603 0.916667 6.5 1.73892 6.5 2.75V4.125H2.5V2.75ZM5 8.70833V7.66425C5.2975 7.50521 5.5 7.21279 5.5 6.875C5.5 6.36946 5.0515 5.95833 4.5 5.95833C3.9485 5.95833 3.5 6.36946 3.5 6.875C3.5 7.21279 3.7025 7.50521 4 7.66425V8.70833C4 8.96133 4.2235 9.16667 4.5 9.16667C4.7765 9.16667 5 8.96133 5 8.70833Z" fill="white"/>
</svg>
