<svg width="210" height="19" viewBox="0 0 210 19" fill="none" xmlns="http://www.w3.org/2000/svg">
<rect opacity="0.0685454" y="11" width="209.6" height="8" fill="#08335D"/>
<path fill-rule="evenodd" clip-rule="evenodd" d="M14.4326 7.92416V13H11V0H17.1896C18.699 0 19.8553 0.359082 20.6587 1.07725C21.4621 1.79541 21.8638 2.75702 21.8638 3.96208C21.8638 5.16713 21.456 6.12875 20.6404 6.84691C19.8249 7.56507 18.6746 7.92416 17.1896 7.92416H14.4326ZM14.4326 5.36798H16.7331C17.4026 5.36798 17.8926 5.2493 18.2029 5.01194C18.5133 4.77458 18.6685 4.4368 18.6685 3.9986C18.6685 3.53605 18.5164 3.1861 18.2121 2.94874C17.9078 2.71138 17.4148 2.5927 16.7331 2.5927H14.4326V5.36798ZM34.3473 13V10.3708H28.4133V7.70506H33.9639V5.07584H28.4133V2.62921H34.3473V0H25.072V13H34.3473ZM46.9404 10.3708V13H37.6651V0H46.9404V2.62921H41.0064V5.07584H46.557V7.70506H41.0064V10.3708H46.9404ZM53.6908 13L53.6905 7.10177L58.8945 13H62.9661L57.0226 6.16754L62.7653 0H58.7484L53.6905 5.58936L53.6908 0H50.2582V13H53.6908ZM74.9514 7.72331V13H71.5736V0H80.6481V2.68399H74.9514V5.05758H80.2829V7.72331H74.9514ZM84.678 13L85.8352 10.316H91.5942L92.7482 13H96.126L90.0277 0H87.3254L81.2454 13H84.678ZM86.9452 7.74233H90.4888L88.7208 3.62658L86.9452 7.74233ZM101.471 13V7.11698L103.954 13H106.126L108.596 7.04851L108.61 13H111.604V0H108.938L105.066 8.87512L101.178 0H98.4944V13H101.471ZM118.993 0V13H115.561V0H118.993ZM131.824 13V10.2247H126.328V0H122.895V13H131.824ZM139.268 8.04132L139.268 13H135.817L135.817 8.01089L130.358 0H134.229L137.518 5.19224L140.857 0H144.764L139.268 8.04132ZM162.062 13V10.2247H156.567V0H153.134V13H162.062ZM168.363 10.316L167.206 13H163.773L169.854 0H172.556L178.654 13H175.276L174.122 10.316H168.363ZM173.017 7.74233H169.473L171.249 3.62658L173.017 7.74233ZM188.817 5.26908L186.044 13H183.323L178.685 0H182.173L184.845 8.19347L187.742 0H190.079L192.864 8.33954L195.666 0H198.916L194.26 13H191.539L188.817 5.26908Z" fill="#08335D"/>
</svg>
