<svg width="14" height="12" viewBox="0 0 14 12" fill="none" xmlns="http://www.w3.org/2000/svg">
<g opacity="0.3">
<path d="M5.02835 11.4048C4.4455 11.4048 3.84558 11.356 3.24206 11.2582C2.1791 11.0858 1.10307 10.5109 0.798588 10.3388L0 9.88738L0.864605 9.59343C1.80973 9.27215 2.38466 9.07281 3.09635 8.76067C2.38373 8.40388 1.83451 7.76206 1.57013 6.93239L1.36899 6.3011L1.53393 6.32715C1.37753 6.16417 1.25403 5.99874 1.15829 5.84831C0.817817 5.31366 0.637554 4.66036 0.67591 4.10051L0.713752 3.54948L1.03284 3.67727C0.898231 3.41447 0.800953 3.1338 0.743778 2.83963C0.604442 2.12222 0.721053 1.36006 1.07222 0.693576L1.35017 0.166046L1.72191 0.627661C2.89758 2.08778 4.38668 2.95391 6.15404 3.20747C6.08185 2.69302 6.13594 2.19653 6.31497 1.7515C6.52341 1.23333 6.89422 0.793936 7.38699 0.480735C7.93425 0.132983 8.59793 -0.0355246 9.25574 0.00625679C9.95365 0.0505897 10.5873 0.320946 11.0906 0.78862C11.3363 0.722599 11.5174 0.652113 11.7621 0.556856C11.9094 0.499553 12.0764 0.434489 12.2854 0.360069L13.0554 0.0857795L12.5532 1.56843C12.5863 1.56556 12.6205 1.56312 12.6562 1.56152L13.4784 1.52304L12.9924 2.20972C12.9646 2.24905 12.9575 2.26022 12.9476 2.27563C12.9084 2.33666 12.8597 2.41256 12.1926 3.33345C12.0256 3.56405 11.9422 3.86439 11.9577 4.17929C12.0169 5.37596 11.8749 6.45866 11.5354 7.39719C11.2144 8.28513 10.7169 9.04697 10.0569 9.66157C9.24021 10.4219 8.19884 10.9425 6.96157 11.2088C6.35466 11.3393 5.70292 11.4048 5.02835 11.4048Z" fill="black"/>
</g>
</svg>
